<?xml version="1.0" encoding="iso-8859-1"?>
<!-- Generator: Adobe Illustrator 19.0.0, SVG Export Plug-In . SVG Version: 6.00 Build 0)  -->
<svg version="1.1" id="Capa_1" xmlns="http://www.w3.org/2000/svg" xmlns:xlink="http://www.w3.org/1999/xlink" x="0px" y="0px"
	 viewBox="0 0 512 512" style="enable-background:new 0 0 512 512;" xml:space="preserve">
<g>
	<g>
		<path d="M256,0L34.3,128.002v255.996L256,512l221.7-128.002V128.002L256,0z M271,43.304l161.7,93.358l-90,51.962L271,147.228
			V43.304z M241,43.304v103.924l-71.7,41.396l-90-51.962L241,43.304z M64.3,162.643l90,51.961v82.792l-90,51.962V162.643z
			 M241,468.696L79.299,375.338l90.001-51.962l71.7,41.396V468.696z M241,330.131l-56.7-32.736v-65.471L241,264.66V330.131z
			 M199.3,205.944l56.7-32.736l56.7,32.736L256,238.68L199.3,205.944z M327.7,231.924v65.471L271,330.132V264.66L327.7,231.924z
			 M271,468.696V364.772l71.7-41.396l90,51.962L271,468.696z M447.7,349.358l-90-51.962v-82.792l90-51.961V349.358z"/>
	</g>
</g>
<g>
</g>
<g>
</g>
<g>
</g>
<g>
</g>
<g>
</g>
<g>
</g>
<g>
</g>
<g>
</g>
<g>
</g>
<g>
</g>
<g>
</g>
<g>
</g>
<g>
</g>
<g>
</g>
<g>
</g>
</svg>
